<svg viewBox="0 0 1024 1024" version="1.1" xmlns="http://www.w3.org/2000/svg" width="200" height="200"><path d="M952.32 465.92c-15.36-61.44-46.08-97.28-76.8-112.64v-5.12c0-30.72-10.24-76.8-35.84-107.52-35.84-46.08-71.68-56.32-97.28-66.56-15.36-51.2-56.32-102.4-133.12-102.4-46.08 0-81.92 15.36-102.4 30.72-15.36-15.36-46.08-30.72-97.28-30.72-76.8 0-117.76 51.2-133.12 102.4-25.6 10.24-61.44 20.48-97.28 66.56-20.48 25.6-30.72 76.8-30.72 107.52v5.12c-30.72 15.36-56.32 51.2-76.8 112.64-30.72 112.64 30.72 179.2 71.68 215.04v25.6c15.36 87.04 87.04 143.36 143.36 163.84 20.48 46.08 61.44 81.92 122.88 81.92 51.2 0 81.92-10.24 102.4-30.72 20.48 15.36 51.2 30.72 102.4 30.72 61.44 0 102.4-35.84 117.76-76.8 56.32-20.48 133.12-76.8 143.36-163.84v-25.6c46.08-40.96 107.52-107.52 76.8-220.16zM409.6 875.52c-40.96 0-51.2-35.84-51.2-40.96 0-15.36-10.24-25.6-25.6-30.72-35.84-10.24-102.4-46.08-107.52-112.64-10.24-56.32 15.36-71.68 61.44-87.04 20.48-5.12 30.72-25.6 25.6-46.08-5.12-20.48-25.6-30.72-46.08-25.6-40.96 15.36-71.68 35.84-92.16 61.44-25.6-25.6-35.84-61.44-20.48-107.52 25.6-81.92 61.44-87.04 107.52-87.04 10.24 0 20.48 0 30.72-5.12 20.48-5.12 35.84-25.6 30.72-46.08-15.36-15.36-35.84-30.72-56.32-25.6h-40.96c5.12-15.36 10.24-30.72 15.36-35.84 20.48-25.6 40.96-30.72 61.44-35.84 5.12 0 15.36-5.12 20.48-5.12h10.24l5.12-5.12 5.12-5.12 5.12-5.12v-5.12-5.12c5.12-35.84 15.36-71.68 61.44-71.68 46.08 0 61.44 20.48 61.44 25.6v266.24c-30.72-15.36-61.44-15.36-76.8-15.36-20.48 5.12-35.84 25.6-30.72 46.08s20.48 35.84 46.08 30.72c0 0 40.96-5.12 66.56 40.96v302.08c-5.12 15.36-15.36 30.72-66.56 30.72z m445.44-281.6c-20.48-25.6-51.2-46.08-92.16-61.44-20.48-5.12-40.96 5.12-46.08 25.6-5.12 20.48 5.12 40.96 25.6 46.08 35.84 10.24 56.32 25.6 61.44 51.2v30.72c-10.24 61.44-71.68 102.4-107.52 112.64-15.36 5.12-25.6 15.36-30.72 30.72 0 5.12-10.24 40.96-51.2 40.96-46.08 0-56.32-15.36-61.44-25.6v-302.08c25.6-46.08 66.56-40.96 66.56-40.96 20.48 5.12 40.96-10.24 46.08-30.72 5.12-20.48-10.24-40.96-30.72-46.08-20.48-5.12-51.2 0-81.92 15.36V174.08c5.12-10.24 15.36-25.6 61.44-25.6 46.08 0 61.44 40.96 61.44 61.44v5.12c0 5.12 0 5.12 5.12 10.24 0 0 0 5.12 5.12 5.12l5.12 5.12 5.12 5.12 5.12 5.12c10.24 5.12 15.36 5.12 25.6 10.24 20.48 5.12 40.96 10.24 61.44 40.96 5.12 10.24 10.24 20.48 15.36 35.84h-40.96c-20.48-5.12-40.96 10.24-46.08 30.72-5.12 20.48 10.24 40.96 30.72 46.08 10.24 0 15.36 0 30.72 5.12 40.96 5.12 81.92 5.12 107.52 87.04 5.12 35.84-5.12 66.56-30.72 92.16z" fill="#29B49D"></path></svg>
